<?xml version="1.0" encoding="utf-8" ?><svg xmlns="http://www.w3.org/2000/svg" xmlns:xlink="http://www.w3.org/1999/xlink" width="447" height="447" viewBox="0 0 447 447"><path fill="#28C650" transform="matrix(3.26277 0 0 3.26277 -6.10352e-05 -3.05176e-05)" d="M65.5335 20.6054C69.4227 19.9813 93.1767 21.3282 87.0194 29.778C86.2314 30.8486 85.0025 31.5066 83.6746 31.5688C82.796 31.6016 79.0042 30.5121 77.8715 30.225C72.4246 28.8441 67.4925 28.7247 61.9366 29.6101C51.369 31.4005 41.936 37.2915 35.6897 46.0015C29.467 54.7049 26.9256 65.5103 28.6165 76.0749C30.3575 86.6107 36.1855 96.034 44.8344 102.298C53.5539 108.647 64.4616 111.222 75.1002 109.441C91.3363 106.652 104.301 94.3703 107.962 78.3084C108.88 74.1521 108.223 69.2621 110.245 66.4478C113.885 63.4787 117.368 65.6384 117.486 69.9853C117.794 81.2699 113.279 92.5052 106.12 101.136C97.8531 110.989 86.0195 117.164 73.2098 118.311C60.0295 119.618 46.8821 115.528 36.7684 106.976C26.9168 98.7006 20.7566 86.8503 19.6431 74.0325C18.4415 60.9074 22.5505 47.8483 31.0511 37.7759C40.1285 26.9751 51.6765 21.8017 65.5335 20.6054Z"/><path fill="#28C650" transform="matrix(3.26277 0 0 3.26277 -6.10352e-05 -3.05176e-05)" d="M112.526 31.5205C113.973 31.4826 115.136 31.7931 116.217 32.8064C117.058 33.5803 117.549 34.6625 117.578 35.8052C117.617 37.7207 116.501 38.9274 115.236 40.1938C105.914 49.5237 96.5721 58.8444 87.2577 68.1807L77.4624 77.9908C75.4852 79.9685 73.5244 82.1314 71.3375 83.8731C70.5346 84.5126 69.443 85.1689 68.3817 85.1579C65.7045 85.1302 54.4737 72.8727 51.7638 70.162C50.7509 69.1651 49.7256 68.1644 48.7909 67.093C47.9586 66.1388 47.1439 64.9194 47.267 63.5918C47.3697 62.4845 48.0376 61.4595 48.873 60.7546C49.8259 59.9506 51.0186 59.5269 52.267 59.6627C54.7158 59.929 66.6968 72.58 68.5806 74.9972C69.9459 72.726 82.1776 60.7686 84.7673 58.1757L100.282 42.6563C102.869 40.07 109.696 32.7191 112.526 31.5205Z"/></svg>